# xmcd
#
# Track frame offsets:
#	150
#	8060
#	22602
#	33436
#	44001
#	56990
#	69119
#	79745
#	91709
#	104665
#	119011
#	130173
#
# Disc length: 1927 seconds
#
# Revision: 1
# Processed by: cddbd v1.5.2PL0 Copyright (c) Steve Scherf et al.
# Submitted via: audiograbber 1.83.01
#
DISCID=9607850c
DTITLE=Various Artist - Country Giants Vol. 3
DYEAR=1973
DGENRE=Country 
TTITLE0=Jim Reeves - Gipsy Feet 
TTITLE1=Floyd Cramer - Release Me (And Let Me Love Again) 
TTITLE2=Waylon Jennings - Look Into My Teardrops
TTITLE3=Skeeter Davis - I'm A Lover (Not A Fighter)
TTITLE4=Porter Wagoner - The Carroll County Accident 
TTITLE5=Dottie West and Don Gibson - Rings Of Gold
TTITLE6=Jim Reeves - Scarlet Ribbons
TTITLE7=Chet Atkins - Kentucky
TTITLE8=Don Gibson - Oh Lonesome Me 
TTITLE9=Dolly Parton - Mule Skinner Blues (Blue Yodel No.8)
TTITLE10=Waylon Jennings - Anita You're Dreaming 
TTITLE11=Porter Wagoner - The Cold Hard Facts Of Life 
EXTD=
EXTT0=
EXTT1=
EXTT2=
EXTT3=
EXTT4=
EXTT5=
EXTT6=
EXTT7=
EXTT8=
EXTT9=
EXTT10=
EXTT11=
PLAYORDER=
